<svg width="145" height="113" viewBox="0 0 145 113" fill="none" xmlns="http://www.w3.org/2000/svg">
<path d="M19.6778 30.8935C16.0957 30.9921 12.4788 30.4898 11.7222 29.7887C11.4887 29.5724 11.4879 29.5673 11.6531 29.3577C11.8926 29.0539 12.3766 28.7855 13.28 28.4557C15.7143 27.5669 19.173 27.0193 23.2239 26.8814C26.0347 26.7857 28.4802 26.9875 30.1674 27.4545C32.0566 27.9775 32.0032 28.4457 29.9632 29.2469C27.6694 30.1479 23.7033 30.7828 19.6778 30.8935ZM11.1981 24.9178C10.9549 21.3702 10.9513 21.4132 11.5846 20.2278C12.6044 18.3192 14.1214 17.2856 16.2649 17.0391C18.6033 16.7702 20.6688 17.3764 23.0415 19.028C25.6917 20.8727 28.7041 22.145 30.4851 22.1718L31.1378 22.1816L31.2921 24.4321C31.377 25.6698 31.4303 26.6837 31.4106 26.685C31.3909 26.6864 31.1292 26.595 30.8292 26.4819C30.5291 26.3689 29.791 26.1875 29.1889 26.0789C26.9725 25.679 24.6591 25.6104 21.2778 25.8443C16.9382 26.1446 13.965 26.804 11.5754 27.9963C11.4242 28.0717 11.4019 27.8893 11.1981 24.9178ZM34.6483 21.2453C34.3934 21.2204 34.1643 21.182 34.139 21.16C34.1137 21.138 34.2311 21.0212 34.3998 20.9005C34.8152 20.6031 35.5767 19.6665 35.7417 19.2501C35.9107 18.8234 35.8088 18.4895 35.4711 18.363C35.1582 18.2457 34.855 18.4336 34.6703 18.859C34.4876 19.28 33.75 20.0155 33.1828 20.3423C31.5378 21.2901 30.0944 21.2701 27.636 20.2656C26.1402 19.6544 25.2329 19.1546 23.7106 18.1029C21.9571 16.8916 20.6727 16.3191 18.9241 15.9695C18.2494 15.8346 17.8583 15.8243 16.4736 15.9052C14.8602 15.9995 14.8216 15.9971 14.6235 15.7885C14.1256 15.2644 13.5248 13.8744 13.2446 12.5982C13.1516 12.1748 12.9661 12.0262 12.565 12.0537C12.438 12.0624 12.282 12.1417 12.2183 12.2299C11.8859 12.6907 12.7324 15.2605 13.5403 16.2434L13.7518 16.5007L13.2447 16.7929C12.9659 16.9537 12.4698 17.3316 12.1423 17.6327L11.5469 18.1803L11.2466 17.9828C10.7917 17.6836 10.0277 16.8264 9.61588 16.153C9.09748 15.3054 8.68319 14.2506 8.38138 13.0099C8.22723 12.3762 8.05435 11.8785 7.9553 11.7833C7.73582 11.5722 7.41336 11.6024 7.21603 11.8525C7.01441 12.1081 7.06333 12.6164 7.40195 13.7845C8.03425 15.9655 8.93185 17.4877 10.241 18.5989L10.8979 19.1565L10.7369 19.3935C10.6483 19.5239 10.441 19.9514 10.2761 20.3435L9.97629 21.0565L9.52703 21.0254C7.99566 20.9194 6.12151 20.3038 5.01725 19.5441C3.77049 18.6863 2.70345 17.2242 2.04848 15.4761C1.62806 14.3541 1.41428 12.4735 1.57195 11.284C1.8088 9.49703 2.54239 7.88802 3.75861 6.48786C5.13667 4.90139 6.65547 3.94823 8.77365 3.34057C9.74919 3.0607 12.8442 2.8208 13.9633 2.93832C17.5239 3.31222 20.398 4.50183 22.84 6.61248C25.1293 8.59119 26.6951 11.193 27.5119 14.3757C27.838 15.6464 27.9509 15.8326 28.3778 15.8033C28.4898 15.7956 28.6516 15.7003 28.7374 15.5915C28.8684 15.4255 28.8764 15.2989 28.7871 14.8061C28.6116 13.8369 28.198 12.5138 27.7363 11.4445C27.4969 10.8899 27.3146 10.4207 27.3312 10.4016C27.3479 10.3826 27.7004 10.4312 28.1147 10.5097C30.5018 10.9621 33.8362 10.4815 36.9904 9.23038C38.4775 8.64051 39.5005 8.59213 40.6184 9.05879C42.3271 9.77202 43.3034 12.0339 43.0146 14.6101C42.7275 17.1708 41.1962 19.5154 39.1425 20.5386C38.1029 21.0565 36.0379 21.3812 34.6483 21.2453Z" fill="#763B23"/>
<path d="M137.32 84.6297C138.174 84.0487 138.888 83.2624 139.4 82.3379C139.913 81.4134 140.209 80.3782 140.264 79.3206C140.285 78.8962 140.19 78.4778 139.99 78.1155C139.79 77.7532 139.493 77.4624 139.136 77.2779C139.998 76.7009 140.72 75.914 141.237 74.9858C141.754 74.0576 142.052 73.0165 142.103 71.9531C142.125 71.5203 142.026 71.0937 141.82 70.7256C141.614 70.3575 141.309 70.0638 140.942 69.8803C139.687 69.2556 138.26 69.0903 136.882 69.4101C138.175 68.5064 139.117 67.1379 139.526 65.5699C139.778 64.5209 139.782 63.4297 139.537 62.3936C139.292 61.3575 138.806 60.4087 138.122 59.6317C137.853 59.3109 137.497 59.0844 137.1 58.9814C136.702 58.8783 136.282 58.9032 135.891 59.053C134.915 59.4152 134.032 60.024 133.321 60.8252C132.61 61.6263 132.093 62.595 131.816 63.6448C131.433 65.2233 131.627 66.8793 132.358 68.2805C131.296 67.3434 129.957 66.8176 128.554 66.7871C128.144 66.7738 127.735 66.8885 127.379 67.1167C127.024 67.345 126.737 67.6767 126.555 68.0706C126.098 69.0311 125.868 70.0881 125.885 71.1496C125.902 72.211 126.165 73.2447 126.651 74.1606C126.251 74.1571 125.856 74.2759 125.512 74.5025C125.168 74.7292 124.891 75.0541 124.715 75.438C124.262 76.3945 124.033 77.4459 124.048 78.5022C124.062 79.5585 124.319 80.5881 124.798 81.5028C124.399 81.5121 124.007 81.6391 123.667 81.8694C123.328 82.0997 123.053 82.424 122.875 82.8055C122.451 83.6721 122.216 84.6234 122.189 85.5876C122.161 86.5519 122.342 87.504 122.716 88.3722C123.091 89.2403 123.65 90.0018 124.352 90.5994C125.054 91.1969 125.879 91.6148 126.767 91.8215C127.108 91.9134 127.459 91.9646 127.814 91.9743L126.204 98.4208C126.136 98.6922 126.173 98.9778 126.306 99.2148C126.439 99.4519 126.657 99.6209 126.912 99.6847C127.168 99.7485 127.44 99.7019 127.669 99.5552C127.897 99.4084 128.064 99.1735 128.132 98.9021L129.741 92.4556C130.065 92.6151 130.406 92.7366 130.757 92.8178C131.529 93.0184 132.336 93.0548 133.131 92.9249C133.926 92.7951 134.693 92.5016 135.389 92.0612C136.268 91.4859 137.006 90.6947 137.536 89.7578C138.067 88.8209 138.374 87.7671 138.43 86.6895C138.449 86.2658 138.355 85.8482 138.159 85.4842C137.962 85.1202 137.672 84.8242 137.32 84.6297ZM128.16 89.9083C127.466 89.894 126.791 89.6995 126.195 89.342C125.598 88.9845 125.099 88.475 124.74 87.8586C124.391 87.2192 124.21 86.4902 124.213 85.7436C124.216 84.997 124.404 84.2588 124.759 83.602C125.072 83.6203 125.382 83.6686 125.685 83.7463C126.206 83.8648 126.697 84.0949 127.125 84.4225C127.554 84.7501 127.912 85.1683 128.178 85.6516C128.533 86.2888 128.718 87.0185 128.715 87.7664C128.712 88.5142 128.52 89.2534 128.16 89.9083ZM129.999 82.5408C129.305 82.5284 128.63 82.3347 128.033 81.977C127.436 81.6193 126.937 81.1088 126.58 80.4911C126.23 79.8561 126.047 79.1305 126.049 78.3871C126.052 77.6437 126.239 76.9084 126.593 76.255C126.908 76.2571 127.221 76.2987 127.525 76.3788C128.046 76.4973 128.536 76.7274 128.965 77.055C129.394 77.3826 129.752 77.8008 130.018 78.2841C130.373 78.9213 130.558 79.651 130.555 80.3989C130.551 81.1468 130.36 81.8859 129.999 82.5408ZM131.839 75.1733C131.145 75.1609 130.469 74.9672 129.872 74.6095C129.276 74.2519 128.777 73.7414 128.419 73.1237C128.07 72.4886 127.887 71.763 127.889 71.0196C127.891 70.2762 128.079 69.541 128.433 68.8875C128.747 68.8988 129.059 68.9402 129.364 69.0114C129.886 69.1299 130.376 69.36 130.805 69.6876C131.233 70.0151 131.592 70.4334 131.858 70.9167C132.212 71.5538 132.397 72.2836 132.394 73.0314C132.391 73.7793 132.199 74.5184 131.839 75.1733ZM134.733 68.1777C134.258 67.6523 133.919 67.0064 133.746 66.2988C133.574 65.5912 133.573 64.8443 133.744 64.1261C133.931 63.3979 134.298 62.7303 134.807 62.1923C135.315 61.6542 135.947 61.2652 136.638 61.0656C137.103 61.591 137.434 62.2334 137.602 62.9354C137.769 63.6374 137.768 64.3771 137.599 65.0886C137.409 65.8138 137.045 66.4799 136.543 67.0214C136.04 67.563 135.416 67.9614 134.733 68.1777ZM134.397 90.2699C133.778 90.6498 133.082 90.8586 132.375 90.8762C131.668 90.8938 130.973 90.7196 130.358 90.3703C130.375 90.0524 130.419 89.736 130.492 89.4253L130.502 89.3843C130.774 88.2666 131.451 87.2949 132.385 86.6804C133.293 86.1118 134.367 85.9349 135.375 86.1877C135.746 86.279 136.103 86.4193 136.438 86.6052C136.401 87.3367 136.196 88.0528 135.841 88.6913C135.485 89.3299 134.989 89.8717 134.397 90.2699ZM136.236 82.9024C135.619 83.2863 134.923 83.4973 134.215 83.5149C133.507 83.5325 132.812 83.3561 132.198 83.0028C132.214 82.6849 132.259 82.3685 132.331 82.0578L132.342 82.0169C132.473 81.4653 132.707 80.9438 133.029 80.483C133.352 80.0222 133.757 79.6314 134.22 79.3334C134.667 79.0434 135.163 78.8487 135.677 78.7606C136.191 78.6725 136.714 78.6927 137.215 78.8202C137.582 78.9228 137.938 79.0627 138.278 79.2378C138.241 79.9692 138.036 80.6853 137.68 81.3239C137.325 81.9624 136.829 82.5043 136.236 82.9024ZM138.076 75.5349C137.461 75.9248 136.763 76.1395 136.054 76.1571C135.345 76.1747 134.65 75.9947 134.038 75.6353C134.054 75.3174 134.099 75.001 134.171 74.6903L134.181 74.6494C134.313 74.0978 134.547 73.5764 134.869 73.1156C135.192 72.6548 135.596 72.2639 136.06 71.9659C136.511 71.6781 137.009 71.4867 137.526 71.4029C138.043 71.3192 138.567 71.3447 139.069 71.478C139.432 71.5694 139.783 71.708 140.112 71.8908C140.076 72.619 139.872 73.332 139.517 73.9673C139.162 74.6026 138.667 75.1409 138.076 75.5349Z" fill="#763B23"/>
<path d="M35.408 35.284C35.408 36.8973 34.9973 38.4373 34.176 39.904C33.384 41.3707 32.2987 42.6613 30.92 43.776C29.5707 44.8613 27.972 45.7267 26.124 46.372C24.3053 47.0173 22.3693 47.34 20.316 47.34C19.5827 47.34 18.996 47.252 18.556 47.076C18.1453 46.8707 17.676 46.4893 17.148 45.932C15.6813 49.1293 14.4787 52.0773 13.54 54.776C12.6307 57.4453 11.912 60.0413 11.384 62.564C10.2693 62.3 9.36 61.8307 8.656 61.156C7.952 60.5107 7.30667 59.6893 6.72 58.692C7.01333 58.1347 7.36533 57.4013 7.776 56.492C8.18667 55.5827 8.68533 54.468 9.272 53.148C9.85867 51.7987 10.5333 50.2 11.296 48.352C12.088 46.4747 13.012 44.2893 14.068 41.796C14.5373 40.652 14.948 39.6547 15.3 38.804C15.652 37.9533 15.96 37.1613 16.224 36.428C16.488 35.6653 16.7227 34.9173 16.928 34.184C17.1627 33.4507 17.3973 32.644 17.632 31.764C16.2533 32.204 14.9773 32.7173 13.804 33.304C12.66 33.8907 11.7067 34.5067 10.944 35.152C10.68 34.976 10.4013 34.712 10.108 34.36C9.844 34.008 9.59467 33.6267 9.36 33.216C9.12533 32.776 8.92 32.336 8.744 31.896C8.568 31.456 8.46533 31.06 8.436 30.708C9.28667 30.1213 10.3427 29.5787 11.604 29.08C12.8653 28.5813 14.2147 28.156 15.652 27.804C17.0893 27.4227 18.5707 27.1293 20.096 26.924C21.6507 26.7187 23.132 26.616 24.54 26.616C26.212 26.616 27.7227 26.836 29.072 27.276C30.4213 27.6867 31.5653 28.2733 32.504 29.036C33.4427 29.7987 34.1613 30.708 34.66 31.764C35.1587 32.82 35.408 33.9933 35.408 35.284ZM27.576 30.004C26.4613 30.004 25.3173 30.092 24.144 30.268L24.672 31.06C24.3787 31.4413 24.012 32.0133 23.572 32.776C23.132 33.5387 22.648 34.4627 22.12 35.548C21.592 36.604 21.0053 37.792 20.36 39.112C19.744 40.432 19.084 41.8253 18.38 43.292C20.668 43.292 22.7507 43.0867 24.628 42.676C26.5053 42.236 28.104 41.6493 29.424 40.916C30.7733 40.1533 31.8147 39.2733 32.548 38.276C33.3107 37.2787 33.692 36.208 33.692 35.064C33.692 33.5387 33.1787 32.3213 32.152 31.412C31.1253 30.4733 29.6 30.004 27.576 30.004ZM47.6043 41.224C47.8976 41.224 48.2349 41.2827 48.6163 41.4C49.0269 41.488 49.3936 41.62 49.7163 41.796C50.0389 41.9427 50.3029 42.104 50.5083 42.28C50.7429 42.456 50.8603 42.6173 50.8603 42.764C50.2736 43.996 49.7309 45.2427 49.2323 46.504C48.7336 47.736 48.3083 48.924 47.9563 50.068C47.6043 51.212 47.3256 52.2827 47.1203 53.28C46.9443 54.2773 46.8563 55.1427 46.8563 55.876C46.8563 56.6973 46.9443 57.3867 47.1203 57.944C47.2963 58.472 47.5896 58.8533 48.0003 59.088C47.6483 59.3227 47.1936 59.5133 46.6363 59.66C46.0789 59.8067 45.5803 59.88 45.1403 59.88C43.5563 59.88 42.7643 58.7947 42.7643 56.624C42.7643 54.952 43.3216 52.664 44.4363 49.76C43.8496 51.1093 43.1749 52.3853 42.4123 53.588C41.6496 54.7613 40.8723 55.8027 40.0803 56.712C39.2883 57.6213 38.4816 58.3693 37.6603 58.956C36.8683 59.5133 36.1349 59.8507 35.4603 59.968C34.3749 59.9093 33.4949 59.396 32.8203 58.428C32.1456 57.4307 31.8083 56.1693 31.8083 54.644C31.8083 53.0013 32.1603 51.2707 32.8643 49.452C33.5683 47.6333 34.4629 45.9467 35.5483 44.392C36.6629 42.8373 37.8656 41.5467 39.1562 40.52C40.4469 39.464 41.6936 38.9067 42.8963 38.848C43.1896 38.936 43.5123 39.112 43.8643 39.376C44.2456 39.64 44.5976 39.948 44.9203 40.3C45.2723 40.652 45.5656 41.0187 45.8003 41.4C46.0349 41.752 46.1669 42.06 46.1963 42.324C45.0229 42.5 43.8056 43.072 42.5443 44.04C41.3123 45.008 40.1829 46.1813 39.1562 47.56C38.1589 48.9093 37.3376 50.3613 36.6923 51.916C36.0469 53.4707 35.7243 54.9227 35.7243 56.272C35.7243 56.8293 35.9296 57.1813 36.3403 57.328C37.1909 57.152 38.1736 56.4333 39.2883 55.172C40.4029 53.8813 41.7523 51.9013 43.3363 49.232C43.6296 48.704 43.9523 48.1173 44.3043 47.472C44.6856 46.8267 45.0669 46.152 45.4483 45.448C45.8296 44.744 46.1963 44.04 46.5483 43.336C46.9296 42.6027 47.2816 41.8987 47.6043 41.224ZM62.5123 38.452C63.099 38.452 63.7737 38.628 64.5363 38.98C65.299 39.332 65.9737 39.7867 66.5603 40.344C66.4137 39.1707 66.223 38.0707 65.9883 37.044C65.783 35.988 65.4603 34.9027 65.0203 33.788C64.6097 32.6733 64.0523 31.456 63.3483 30.136C62.6443 28.816 61.7643 27.3053 60.7083 25.604C60.7963 25.34 60.987 25.032 61.2803 24.68C61.603 24.328 61.955 24.0053 62.3363 23.712C62.747 23.3893 63.1577 23.1107 63.5683 22.876C64.0083 22.6413 64.419 22.4947 64.8003 22.436C65.6217 23.3453 66.399 24.4893 67.1323 25.868C67.8657 27.2173 68.511 28.684 69.0683 30.268C69.6257 31.8227 70.051 33.436 70.3443 35.108C70.667 36.78 70.8283 38.3787 70.8283 39.904C70.8283 41.4293 70.6523 42.9987 70.3003 44.612C69.9777 46.2253 69.5083 47.8093 68.8923 49.364C68.3057 50.8893 67.6163 52.3413 66.8243 53.72C66.0323 55.0987 65.167 56.3307 64.2283 57.416C63.319 58.5013 62.3657 59.3813 61.3683 60.056C60.371 60.76 59.3737 61.2 58.3763 61.376C56.3523 61.1413 54.7977 60.4813 53.7123 59.396C52.6563 58.34 52.1283 56.8733 52.1283 54.996C52.1283 53.9987 52.275 52.9133 52.5683 51.74C52.891 50.5667 53.3017 49.408 53.8003 48.264C54.3283 47.0907 54.9297 45.9613 55.6043 44.876C56.3083 43.7613 57.0417 42.764 57.8043 41.884C58.5963 41.004 59.3883 40.256 60.1803 39.64C60.9723 39.024 61.7497 38.628 62.5123 38.452ZM58.0243 59.616C59.051 59.264 60.0777 58.4867 61.1043 57.284C62.131 56.0813 63.055 54.6733 63.8763 53.06C64.6977 51.4173 65.3577 49.672 65.8563 47.824C66.3843 45.9467 66.6483 44.1427 66.6483 42.412C66.6483 41.9133 66.6483 41.6053 66.6483 41.488C66.6483 41.3707 66.6337 41.2533 66.6043 41.136C65.9003 41.4293 65.1523 41.928 64.3603 42.632C63.5683 43.336 62.7763 44.1573 61.9843 45.096C61.1923 46.0053 60.4443 47.0027 59.7403 48.088C59.0363 49.1733 58.4057 50.2587 57.8483 51.344C57.291 52.4293 56.851 53.4707 56.5283 54.468C56.2057 55.4653 56.0443 56.3453 56.0443 57.108C56.0443 58.5747 56.7043 59.4107 58.0243 59.616ZM87.1355 41.224C87.4288 41.224 87.7662 41.2827 88.1475 41.4C88.5582 41.488 88.9248 41.62 89.2475 41.796C89.5702 41.9427 89.8342 42.104 90.0395 42.28C90.2742 42.456 90.3915 42.6173 90.3915 42.764C89.8048 43.996 89.2622 45.2427 88.7635 46.504C88.2648 47.736 87.8395 48.924 87.4875 50.068C87.1355 51.212 86.8568 52.2827 86.6515 53.28C86.4755 54.2773 86.3875 55.1427 86.3875 55.876C86.3875 56.6973 86.4755 57.3867 86.6515 57.944C86.8275 58.472 87.1208 58.8533 87.5315 59.088C87.1795 59.3227 86.7248 59.5133 86.1675 59.66C85.6102 59.8067 85.1115 59.88 84.6715 59.88C83.0875 59.88 82.2955 58.7947 82.2955 56.624C82.2955 54.952 82.8528 52.664 83.9675 49.76C83.3808 51.1093 82.7062 52.3853 81.9435 53.588C81.1808 54.7613 80.4035 55.8027 79.6115 56.712C78.8195 57.6213 78.0128 58.3693 77.1915 58.956C76.3995 59.5133 75.6662 59.8507 74.9915 59.968C73.9062 59.9093 73.0262 59.396 72.3515 58.428C71.6768 57.4307 71.3395 56.1693 71.3395 54.644C71.3395 53.0013 71.6915 51.2707 72.3955 49.452C73.0995 47.6333 73.9942 45.9467 75.0795 44.392C76.1942 42.8373 77.3968 41.5467 78.6875 40.52C79.9782 39.464 81.2248 38.9067 82.4275 38.848C82.7208 38.936 83.0435 39.112 83.3955 39.376C83.7768 39.64 84.1288 39.948 84.4515 40.3C84.8035 40.652 85.0968 41.0187 85.3315 41.4C85.5662 41.752 85.6982 42.06 85.7275 42.324C84.5542 42.5 83.3368 43.072 82.0755 44.04C80.8435 45.008 79.7142 46.1813 78.6875 47.56C77.6902 48.9093 76.8688 50.3613 76.2235 51.916C75.5782 53.4707 75.2555 54.9227 75.2555 56.272C75.2555 56.8293 75.4608 57.1813 75.8715 57.328C76.7222 57.152 77.7048 56.4333 78.8195 55.172C79.9342 53.8813 81.2835 51.9013 82.8675 49.232C83.1608 48.704 83.4835 48.1173 83.8355 47.472C84.2168 46.8267 84.5982 46.152 84.9795 45.448C85.3608 44.744 85.7275 44.04 86.0795 43.336C86.4608 42.6027 86.8128 41.8987 87.1355 41.224ZM91.5675 58.12C91.7141 57.2693 91.9635 56.1547 92.3155 54.776C92.6968 53.368 93.1368 51.8867 93.6355 50.332C94.1341 48.748 94.6621 47.164 95.2195 45.58C95.7768 43.996 96.3195 42.5733 96.8475 41.312C97.2288 40.4027 97.5661 39.6987 97.8595 39.2C98.1528 38.672 98.4755 38.232 98.8275 37.88C99.2381 37.9387 99.6635 38.0413 100.103 38.188C100.543 38.3347 100.969 38.5107 101.379 38.716C101.79 38.9213 102.157 39.1413 102.479 39.376C102.802 39.5813 103.051 39.7867 103.227 39.992C102.435 40.9307 101.731 42.0013 101.115 43.204C100.529 44.4067 99.9275 45.9467 99.3115 47.824C100.895 46.416 102.289 45.0667 103.491 43.776C104.723 42.4853 105.867 41.048 106.923 39.464C107.099 39.3173 107.407 39.244 107.847 39.244C108.258 39.244 108.654 39.3173 109.035 39.464C109.417 39.5813 109.681 39.7573 109.827 39.992C109.299 41.4 109.035 42.7933 109.035 44.172C109.035 45.4627 109.226 46.4307 109.607 47.076C109.578 47.252 109.373 47.5893 108.991 48.088C108.639 48.5867 108.243 49.056 107.803 49.496C107.011 49.0853 106.307 48.528 105.691 47.824C105.075 47.0907 104.621 46.2987 104.327 45.448C102.949 46.416 101.775 47.3693 100.807 48.308C99.8395 49.2173 99.0035 50.244 98.2995 51.388C97.6248 52.5027 97.0381 53.7933 96.5395 55.26C96.0701 56.7267 95.6155 58.472 95.1755 60.496C94.9115 60.4667 94.5888 60.364 94.2075 60.188C93.8555 60.0413 93.4888 59.8507 93.1075 59.616C92.7555 59.3813 92.4328 59.132 92.1395 58.868C91.8461 58.604 91.6555 58.3547 91.5675 58.12ZM110.414 56.052C110.414 55.788 110.428 55.4653 110.458 55.084C110.516 54.6733 110.604 54.1453 110.722 53.5C110.839 52.8253 110.986 52.0187 111.162 51.08C111.367 50.1413 111.616 49.012 111.91 47.692C111.968 47.3987 112.1 46.9293 112.306 46.284C112.511 45.6387 112.775 44.964 113.098 44.26C113.45 43.5267 113.86 42.8227 114.33 42.148C114.828 41.4733 115.415 40.9747 116.09 40.652C116.588 40.7693 117.248 41.0773 118.07 41.576C118.891 42.0453 119.595 42.7053 120.182 43.556C119.507 44.3187 118.935 45.0813 118.466 45.844C118.026 46.6067 117.615 47.3987 117.234 48.22C116.882 49.0413 116.544 49.892 116.222 50.772C115.928 51.652 115.591 52.576 115.21 53.544C114.887 54.3653 114.594 55.216 114.33 56.096C114.066 56.9467 113.919 57.6947 113.89 58.34C113.89 58.868 113.875 59.2347 113.846 59.44C113.846 59.6747 113.772 59.792 113.626 59.792C113.508 59.792 113.274 59.7187 112.922 59.572C112.57 59.4253 112.203 59.2053 111.822 58.912C111.47 58.5893 111.147 58.1933 110.854 57.724C110.56 57.2547 110.414 56.6973 110.414 56.052ZM118.818 36.956C118.818 36.78 118.862 36.516 118.95 36.164C118.803 36.0173 118.671 35.7973 118.554 35.504C118.466 35.2107 118.422 34.9467 118.422 34.712C118.422 34.448 118.451 34.096 118.51 33.656C118.598 33.1867 118.7 32.688 118.818 32.16C118.935 31.632 119.082 31.0893 119.258 30.532C119.434 29.9453 119.61 29.4173 119.786 28.948C120.138 28.948 120.563 29.0507 121.062 29.256C121.59 29.432 122.118 29.6813 122.646 30.004C123.174 30.2973 123.658 30.6347 124.098 31.016C124.538 31.368 124.875 31.7053 125.11 32.028C124.787 32.3507 124.362 32.8053 123.834 33.392C123.306 33.9493 122.792 34.5507 122.294 35.196C121.795 35.812 121.34 36.3987 120.93 36.956C120.519 37.5133 120.255 37.9093 120.138 38.144C119.786 38.0853 119.478 37.9387 119.214 37.704C118.95 37.44 118.818 37.1907 118.818 36.956ZM135.948 41.224C136.241 41.224 136.579 41.2827 136.96 41.4C137.371 41.488 137.737 41.62 138.06 41.796C138.383 41.9427 138.647 42.104 138.852 42.28C139.087 42.456 139.204 42.6173 139.204 42.764C138.617 43.996 138.075 45.2427 137.576 46.504C137.077 47.736 136.652 48.924 136.3 50.068C135.948 51.212 135.669 52.2827 135.464 53.28C135.288 54.2773 135.2 55.1427 135.2 55.876C135.2 56.6973 135.288 57.3867 135.464 57.944C135.64 58.472 135.933 58.8533 136.344 59.088C135.992 59.3227 135.537 59.5133 134.98 59.66C134.423 59.8067 133.924 59.88 133.484 59.88C131.9 59.88 131.108 58.7947 131.108 56.624C131.108 54.952 131.665 52.664 132.78 49.76C132.193 51.1093 131.519 52.3853 130.756 53.588C129.993 54.7613 129.216 55.8027 128.424 56.712C127.632 57.6213 126.825 58.3693 126.004 58.956C125.212 59.5133 124.479 59.8507 123.804 59.968C122.719 59.9093 121.839 59.396 121.164 58.428C120.489 57.4307 120.152 56.1693 120.152 54.644C120.152 53.0013 120.504 51.2707 121.208 49.452C121.912 47.6333 122.807 45.9467 123.892 44.392C125.007 42.8373 126.209 41.5467 127.5 40.52C128.791 39.464 130.037 38.9067 131.24 38.848C131.533 38.936 131.856 39.112 132.208 39.376C132.589 39.64 132.941 39.948 133.264 40.3C133.616 40.652 133.909 41.0187 134.144 41.4C134.379 41.752 134.511 42.06 134.54 42.324C133.367 42.5 132.149 43.072 130.888 44.04C129.656 45.008 128.527 46.1813 127.5 47.56C126.503 48.9093 125.681 50.3613 125.036 51.916C124.391 53.4707 124.068 54.9227 124.068 56.272C124.068 56.8293 124.273 57.1813 124.684 57.328C125.535 57.152 126.517 56.4333 127.632 55.172C128.747 53.8813 130.096 51.9013 131.68 49.232C131.973 48.704 132.296 48.1173 132.648 47.472C133.029 46.8267 133.411 46.152 133.792 45.448C134.173 44.744 134.54 44.04 134.892 43.336C135.273 42.6027 135.625 41.8987 135.948 41.224Z" fill="#763B23"/>
<path d="M26.436 99.816C25.7613 100.168 25.0427 100.344 24.28 100.344C23.3413 100.227 22.432 99.992 21.552 99.64C20.7013 99.288 20.0707 98.8627 19.66 98.364C19.4253 96.9267 19.2347 95.6067 19.088 94.404C18.9413 93.2013 18.824 92.072 18.736 91.016C18.648 89.9307 18.5893 88.904 18.56 87.936C18.5307 86.9387 18.516 85.9413 18.516 84.944C18.516 83.624 18.5307 82.2307 18.56 80.764C18.5893 79.2973 18.6187 77.7427 18.648 76.1C18.7067 74.428 18.7507 72.6533 18.78 70.776C18.8093 68.8693 18.824 66.8013 18.824 64.572C19.2053 64.572 19.7773 64.6893 20.54 64.924C21.3027 65.1293 22.0507 65.3787 22.784 65.672C23.5467 65.9653 24.2213 66.2733 24.808 66.596C25.3947 66.8893 25.7173 67.1387 25.776 67.344C25.4827 68.1653 25.2187 69.236 24.984 70.556C24.7787 71.876 24.6027 73.3427 24.456 74.956C24.3387 76.5693 24.2507 78.2707 24.192 80.06C24.1333 81.8493 24.104 83.624 24.104 85.384C24.104 86.704 24.1187 87.892 24.148 88.948C24.1773 89.9747 24.2067 90.9133 24.236 91.764C24.2947 92.5853 24.368 93.3627 24.456 94.096C24.544 94.8 24.6467 95.504 24.764 96.208C25.5853 93.7147 26.48 91.2213 27.448 88.728C28.4453 86.2347 29.4573 83.844 30.484 81.556C31.54 79.2387 32.5813 77.0827 33.608 75.088C34.6347 73.0933 35.6027 71.3627 36.512 69.896C37.4507 68.4 38.2867 67.2267 39.02 66.376C39.7533 65.496 40.3547 65.0267 40.824 64.968C41.1467 65.0267 41.484 65.1587 41.836 65.364C42.2173 65.54 42.5693 65.76 42.892 66.024C43.2147 66.288 43.508 66.5813 43.772 66.904C44.036 67.2267 44.2413 67.5493 44.388 67.872C43.3027 68.2533 42.1293 69.148 40.868 70.556C39.636 71.964 38.3893 73.6653 37.128 75.66C35.8667 77.6253 34.6347 79.7813 33.432 82.128C32.2587 84.4453 31.188 86.7187 30.22 88.948C29.2813 91.1773 28.4747 93.26 27.8 95.196C27.1253 97.132 26.6707 98.672 26.436 99.816ZM38.3511 94.052C38.3511 93.788 38.3657 93.4653 38.3951 93.084C38.4537 92.6733 38.5417 92.1453 38.6591 91.5C38.7764 90.8253 38.9231 90.0187 39.0991 89.08C39.3044 88.1413 39.5537 87.012 39.8471 85.692C39.9057 85.3987 40.0377 84.9293 40.2431 84.284C40.4484 83.6387 40.7124 82.964 41.0351 82.26C41.3871 81.5267 41.7977 80.8227 42.2671 80.148C42.7657 79.4733 43.3524 78.9747 44.0271 78.652C44.5257 78.7693 45.1857 79.0773 46.0071 79.576C46.8284 80.0453 47.5324 80.7053 48.1191 81.556C47.4444 82.3187 46.8724 83.0813 46.4031 83.844C45.9631 84.6067 45.5524 85.3987 45.1711 86.22C44.8191 87.0413 44.4817 87.892 44.1591 88.772C43.8657 89.652 43.5284 90.576 43.1471 91.544C42.8244 92.3653 42.5311 93.216 42.2671 94.096C42.0031 94.9467 41.8564 95.6947 41.8271 96.34C41.8271 96.868 41.8124 97.2347 41.7831 97.44C41.7831 97.6747 41.7097 97.792 41.5631 97.792C41.4457 97.792 41.2111 97.7187 40.8591 97.572C40.5071 97.4253 40.1404 97.2053 39.7591 96.912C39.4071 96.5893 39.0844 96.1933 38.7911 95.724C38.4977 95.2547 38.3511 94.6973 38.3511 94.052ZM46.7551 74.956C46.7551 74.78 46.7991 74.516 46.8871 74.164C46.7404 74.0173 46.6084 73.7973 46.4911 73.504C46.4031 73.2107 46.3591 72.9467 46.3591 72.712C46.3591 72.448 46.3884 72.096 46.4471 71.656C46.5351 71.1867 46.6377 70.688 46.7551 70.16C46.8724 69.632 47.0191 69.0893 47.1951 68.532C47.3711 67.9453 47.5471 67.4173 47.7231 66.948C48.0751 66.948 48.5004 67.0507 48.9991 67.256C49.5271 67.432 50.0551 67.6813 50.5831 68.004C51.1111 68.2973 51.5951 68.6347 52.0351 69.016C52.4751 69.368 52.8124 69.7053 53.0471 70.028C52.7244 70.3507 52.2991 70.8053 51.7711 71.392C51.2431 71.9493 50.7297 72.5507 50.2311 73.196C49.7324 73.812 49.2777 74.3987 48.8671 74.956C48.4564 75.5133 48.1924 75.9093 48.0751 76.144C47.7231 76.0853 47.4151 75.9387 47.1511 75.704C46.8871 75.44 46.7551 75.1907 46.7551 74.956ZM47.6495 96.12C47.7962 95.2693 48.0455 94.1547 48.3975 92.776C48.7788 91.368 49.2188 89.8867 49.7175 88.332C50.2162 86.748 50.7442 85.164 51.3015 83.58C51.8588 81.996 52.4015 80.5733 52.9295 79.312C53.3108 78.4027 53.6482 77.6987 53.9415 77.2C54.2348 76.672 54.5575 76.232 54.9095 75.88C55.3202 75.9387 55.7455 76.0413 56.1855 76.188C56.6255 76.3347 57.0508 76.5107 57.4615 76.716C57.8722 76.9213 58.2388 77.1413 58.5615 77.376C58.8842 77.5813 59.1335 77.7867 59.3095 77.992C58.5175 78.9307 57.8135 80.0013 57.1975 81.204C56.6108 82.4067 56.0095 83.9467 55.3935 85.824C56.9775 84.416 58.3708 83.0667 59.5735 81.776C60.8055 80.4853 61.9495 79.048 63.0055 77.464C63.1815 77.3173 63.4895 77.244 63.9295 77.244C64.3402 77.244 64.7362 77.3173 65.1175 77.464C65.4988 77.5813 65.7628 77.7573 65.9095 77.992C65.3815 79.4 65.1175 80.7933 65.1175 82.172C65.1175 83.4627 65.3082 84.4307 65.6895 85.076C65.6602 85.252 65.4548 85.5893 65.0735 86.088C64.7215 86.5867 64.3255 87.056 63.8855 87.496C63.0935 87.0853 62.3895 86.528 61.7735 85.824C61.1575 85.0907 60.7028 84.2987 60.4095 83.448C59.0308 84.416 57.8575 85.3693 56.8895 86.308C55.9215 87.2173 55.0855 88.244 54.3815 89.388C53.7068 90.5027 53.1202 91.7933 52.6215 93.26C52.1522 94.7267 51.6975 96.472 51.2575 98.496C50.9935 98.4667 50.6708 98.364 50.2895 98.188C49.9375 98.0413 49.5708 97.8507 49.1895 97.616C48.8375 97.3813 48.5148 97.132 48.2215 96.868C47.9282 96.604 47.7375 96.3547 47.6495 96.12ZM69.0476 80.148C68.9009 79.972 68.7689 79.6053 68.6516 79.048C68.5343 78.4613 68.4756 77.9627 68.4756 77.552C69.2383 77.6107 69.9716 77.6693 70.6756 77.728C71.3796 77.7573 72.0249 77.7867 72.6116 77.816C73.0516 76.936 73.5209 76.0707 74.0196 75.22C74.5476 74.34 75.0463 73.548 75.5156 72.844C76.0143 72.1107 76.4689 71.4947 76.8796 70.996C77.3196 70.4973 77.6569 70.1747 77.8916 70.028C78.1849 70.028 78.5516 70.0867 78.9916 70.204C79.4609 70.292 79.9303 70.424 80.3996 70.6C80.8689 70.7467 81.2943 70.908 81.6756 71.084C82.0569 71.26 82.3209 71.436 82.4676 71.612C81.5876 72.7267 80.8249 73.768 80.1796 74.736C79.5636 75.6747 78.8889 76.76 78.1556 77.992C78.7423 77.992 79.3289 77.9773 79.9156 77.948C80.5316 77.9187 81.1476 77.8747 81.7636 77.816C81.9103 77.9627 82.0276 78.1533 82.1156 78.388C82.2036 78.5933 82.2476 78.8133 82.2476 79.048C80.8103 79.576 79.0649 79.8693 77.0116 79.928C76.2783 81.336 75.6183 82.744 75.0316 84.152C74.4743 85.5307 73.9903 86.8653 73.5796 88.156C73.1983 89.4467 72.8903 90.664 72.6556 91.808C72.4503 92.952 72.3476 93.9787 72.3476 94.888C72.3476 96.1787 72.8316 96.8973 73.7996 97.044C74.6796 96.9267 75.5156 96.7067 76.3076 96.384C77.0996 96.0613 77.8036 95.6507 78.4196 95.152C78.5956 95.416 78.6983 95.636 78.7276 95.812C78.5516 96.076 78.2436 96.384 77.8036 96.736C77.3929 97.088 76.9383 97.4253 76.4396 97.748C75.9409 98.1 75.4569 98.3933 74.9876 98.628C74.5183 98.8627 74.1663 98.9947 73.9316 99.024C73.1983 98.9947 72.4649 98.8333 71.7316 98.54C70.9983 98.2467 70.3236 97.88 69.7076 97.44C69.1209 97 68.6369 96.516 68.2556 95.988C67.8743 95.4307 67.6836 94.888 67.6836 94.36C67.6836 93.656 67.7716 92.776 67.9476 91.72C68.1529 90.6347 68.4316 89.4613 68.7836 88.2C69.1356 86.9387 69.5463 85.6187 70.0156 84.24C70.4849 82.8613 70.9983 81.4973 71.5556 80.148H69.0476ZM93.8883 96.032C93.331 95.5627 92.9497 94.976 92.7443 94.272C92.5683 93.568 92.4803 92.9667 92.4803 92.468C92.4803 91.852 92.5537 91.324 92.7003 90.884C92.583 90.884 92.319 91.1187 91.9083 91.588C91.4977 92.0573 91.043 92.6147 90.5443 93.26C90.075 93.9053 89.6057 94.536 89.1363 95.152C88.667 95.768 88.315 96.2227 88.0803 96.516C87.699 96.9267 87.3323 97.2493 86.9803 97.484C86.6577 97.7187 86.3937 97.8507 86.1883 97.88C85.719 97.8507 85.2203 97.748 84.6923 97.572C84.1937 97.4253 83.7097 97.2053 83.2403 96.912C82.8003 96.6187 82.4043 96.2667 82.0523 95.856C81.7297 95.4453 81.5097 94.976 81.3923 94.448C81.3923 93.6267 81.407 92.952 81.4363 92.424C81.495 91.896 81.5977 91.324 81.7443 90.708C82.0083 89.5933 82.3897 88.332 82.8883 86.924C83.4163 85.516 84.0177 84.1373 84.6923 82.788C85.367 81.4093 86.115 80.1333 86.9363 78.96C87.787 77.7573 88.6817 76.8187 89.6203 76.144C89.8843 76.144 90.1923 76.1733 90.5443 76.232C90.8963 76.2613 91.2483 76.3347 91.6003 76.452C91.9817 76.5693 92.3337 76.716 92.6563 76.892C93.0083 77.0387 93.3017 77.244 93.5363 77.508C93.2723 77.8013 92.5977 78.784 91.5123 80.456C90.4563 82.128 89.2683 84.5333 87.9483 87.672C87.8017 87.9947 87.6257 88.464 87.4203 89.08C87.215 89.696 87.0097 90.3413 86.8043 91.016C86.599 91.6907 86.423 92.3507 86.2763 92.996C86.159 93.6413 86.1003 94.1547 86.1003 94.536C86.1003 94.7707 86.1297 94.9467 86.1883 95.064C86.2763 95.1813 86.3497 95.2693 86.4083 95.328C86.8483 95.152 87.4057 94.668 88.0803 93.876C88.755 93.084 89.6937 91.8667 90.8963 90.224C91.1897 89.8133 91.527 89.344 91.9083 88.816C92.319 88.288 92.7297 87.7307 93.1403 87.144C93.551 86.528 93.9323 85.8973 94.2843 85.252C94.6657 84.6067 94.9737 83.9613 95.2083 83.316C95.3257 82.964 95.4723 82.5533 95.6483 82.084C95.8537 81.5853 96.0883 81.072 96.3523 80.544C96.6457 80.016 96.9683 79.488 97.3203 78.96C97.7017 78.4027 98.1417 77.8893 98.6403 77.42C99.0217 77.42 99.4323 77.464 99.8723 77.552C100.312 77.64 100.723 77.7573 101.104 77.904C101.515 78.0213 101.867 78.168 102.16 78.344C102.454 78.4907 102.674 78.652 102.82 78.828C102.292 80.1187 101.706 81.3947 101.06 82.656C100.415 83.9173 99.8137 85.164 99.2563 86.396C98.699 87.5987 98.2297 88.8013 97.8483 90.004C97.467 91.2067 97.2763 92.38 97.2763 93.524C97.2763 94.14 97.3203 94.6827 97.4083 95.152C97.5257 95.592 97.643 95.9733 97.7603 96.296C97.8777 96.5893 97.9803 96.8387 98.0683 97.044C98.1857 97.2493 98.2443 97.4253 98.2443 97.572C98.2443 97.6013 98.215 97.6453 98.1563 97.704C98.127 97.7333 98.0977 97.748 98.0683 97.748C97.863 97.748 97.599 97.704 97.2763 97.616C96.9537 97.528 96.587 97.396 96.1763 97.22C95.795 97.0733 95.399 96.8973 94.9883 96.692C94.607 96.4867 94.2403 96.2667 93.8883 96.032ZM118.628 79.224C118.921 79.224 119.258 79.2827 119.64 79.4C120.05 79.488 120.417 79.62 120.74 79.796C121.062 79.9427 121.326 80.104 121.532 80.28C121.766 80.456 121.884 80.6173 121.884 80.764C121.297 81.996 120.754 83.2427 120.256 84.504C119.757 85.736 119.332 86.924 118.98 88.068C118.628 89.212 118.349 90.2827 118.144 91.28C117.968 92.2773 117.88 93.1427 117.88 93.876C117.88 94.6973 117.968 95.3867 118.144 95.944C118.32 96.472 118.613 96.8533 119.024 97.088C118.672 97.3227 118.217 97.5133 117.66 97.66C117.102 97.8067 116.604 97.88 116.164 97.88C114.58 97.88 113.788 96.7947 113.788 94.624C113.788 92.952 114.345 90.664 115.46 87.76C114.873 89.1093 114.198 90.3853 113.436 91.588C112.673 92.7613 111.896 93.8027 111.104 94.712C110.312 95.6213 109.505 96.3693 108.684 96.956C107.892 97.5133 107.158 97.8507 106.484 97.968C105.398 97.9093 104.518 97.396 103.844 96.428C103.169 95.4307 102.832 94.1693 102.832 92.644C102.832 91.0013 103.184 89.2707 103.888 87.452C104.592 85.6333 105.486 83.9467 106.572 82.392C107.686 80.8373 108.889 79.5467 110.18 78.52C111.47 77.464 112.717 76.9067 113.92 76.848C114.213 76.936 114.536 77.112 114.888 77.376C115.269 77.64 115.621 77.948 115.944 78.3C116.296 78.652 116.589 79.0187 116.824 79.4C117.058 79.752 117.19 80.06 117.22 80.324C116.046 80.5 114.829 81.072 113.568 82.04C112.336 83.008 111.206 84.1813 110.18 85.56C109.182 86.9093 108.361 88.3613 107.716 89.916C107.07 91.4707 106.748 92.9227 106.748 94.272C106.748 94.8293 106.953 95.1813 107.364 95.328C108.214 95.152 109.197 94.4333 110.312 93.172C111.426 91.8813 112.776 89.9013 114.36 87.232C114.653 86.704 114.976 86.1173 115.328 85.472C115.709 84.8267 116.09 84.152 116.472 83.448C116.853 82.744 117.22 82.04 117.572 81.336C117.953 80.6027 118.305 79.8987 118.628 79.224Z" fill="#763B23"/>
</svg>
