<svg id="wave" style="transform:rotate(180deg); transition: 0.3s" viewBox="0 0 1440 130" version="1.1" xmlns="http://www.w3.org/2000/svg"><defs><linearGradient id="sw-gradient-0" x1="0" x2="0" y1="1" y2="0"><stop stop-color="rgba(74, 20, 14, 1)" offset="0%"></stop><stop stop-color="rgba(74, 20, 14, 1)" offset="100%"></stop></linearGradient></defs><path style="transform:translate(0, 0px); opacity:1" fill="url(#sw-gradient-0)" d="M0,117L10,101.8C20,87,40,56,60,45.5C80,35,100,43,120,49.8C140,56,160,61,180,65C200,69,220,74,240,71.5C260,69,280,61,300,65C320,69,340,87,360,95.3C380,104,400,104,420,95.3C440,87,460,69,480,54.2C500,39,520,26,540,32.5C560,39,580,65,600,78C620,91,640,91,660,84.5C680,78,700,65,720,69.3C740,74,760,95,780,106.2C800,117,820,117,840,106.2C860,95,880,74,900,71.5C920,69,940,87,960,88.8C980,91,1000,78,1020,78C1040,78,1060,91,1080,80.2C1100,69,1120,35,1140,19.5C1160,4,1180,9,1200,21.7C1220,35,1240,56,1260,65C1280,74,1300,69,1320,65C1340,61,1360,56,1380,58.5C1400,61,1420,69,1430,73.7L1440,78L1440,130L1430,130C1420,130,1400,130,1380,130C1360,130,1340,130,1320,130C1300,130,1280,130,1260,130C1240,130,1220,130,1200,130C1180,130,1160,130,1140,130C1120,130,1100,130,1080,130C1060,130,1040,130,1020,130C1000,130,980,130,960,130C940,130,920,130,900,130C880,130,860,130,840,130C820,130,800,130,780,130C760,130,740,130,720,130C700,130,680,130,660,130C640,130,620,130,600,130C580,130,560,130,540,130C520,130,500,130,480,130C460,130,440,130,420,130C400,130,380,130,360,130C340,130,320,130,300,130C280,130,260,130,240,130C220,130,200,130,180,130C160,130,140,130,120,130C100,130,80,130,60,130C40,130,20,130,10,130L0,130Z"></path></svg>