<svg id="wave" style="transform:rotate(180deg); transition: 0.3s" viewBox="0 0 1440 190" version="1.1" xmlns="http://www.w3.org/2000/svg"><defs><linearGradient id="sw-gradient-0" x1="0" x2="0" y1="1" y2="0"><stop stop-color="rgba(136, 67, 44, 1)" offset="0%"></stop><stop stop-color="rgba(136, 67, 44, 1)" offset="100%"></stop></linearGradient></defs><path style="transform:translate(0, 0px); opacity:1" fill="url(#sw-gradient-0)" d="M0,38L10,60.2C20,82,40,127,60,145.7C80,165,100,158,120,129.8C140,101,160,51,180,53.8C200,57,220,114,240,129.8C260,146,280,120,300,104.5C320,89,340,82,360,91.8C380,101,400,127,420,114C440,101,460,51,480,28.5C500,6,520,13,540,31.7C560,51,580,82,600,88.7C620,95,640,76,660,69.7C680,63,700,70,720,63.3C740,57,760,38,780,50.7C800,63,820,108,840,129.8C860,152,880,152,900,139.3C920,127,940,101,960,88.7C980,76,1000,76,1020,91.8C1040,108,1060,139,1080,155.2C1100,171,1120,171,1140,155.2C1160,139,1180,108,1200,85.5C1220,63,1240,51,1260,66.5C1280,82,1300,127,1320,129.8C1340,133,1360,95,1380,69.7C1400,44,1420,32,1430,25.3L1440,19L1440,190L1430,190C1420,190,1400,190,1380,190C1360,190,1340,190,1320,190C1300,190,1280,190,1260,190C1240,190,1220,190,1200,190C1180,190,1160,190,1140,190C1120,190,1100,190,1080,190C1060,190,1040,190,1020,190C1000,190,980,190,960,190C940,190,920,190,900,190C880,190,860,190,840,190C820,190,800,190,780,190C760,190,740,190,720,190C700,190,680,190,660,190C640,190,620,190,600,190C580,190,560,190,540,190C520,190,500,190,480,190C460,190,440,190,420,190C400,190,380,190,360,190C340,190,320,190,300,190C280,190,260,190,240,190C220,190,200,190,180,190C160,190,140,190,120,190C100,190,80,190,60,190C40,190,20,190,10,190L0,190Z"></path></svg>